<?xml version="1.0" encoding="UTF-8"?>
<svg xmlns="http://www.w3.org/2000/svg" width="2048" height="2048" viewBox="0 0 2048 2048">
  <defs>
    <!-- Dégradé vertical: #00B4D8 (haut) -> #005f7a (centre) -> #081525 (bas) -->
    <linearGradient id="bgGrad" x1="0" y1="0" x2="0" y2="2048" gradientUnits="userSpaceOnUse">
      <!-- Dégradé sur les 60% supérieurs, bas sombre -->
      <stop offset="0%" stop-color="#00B4D8" />
      <stop offset="30%" stop-color="#005f7a" />
      <stop offset="60%" stop-color="#081525" />
      <stop offset="100%" stop-color="#081525" />
    </linearGradient>
  </defs>
  <rect width="2048" height="2048" fill="url(#bgGrad)" />

  <defs>
    <linearGradient id="web_extraTentGrad" x1="0" y1="980" x2="0" y2="1400" gradientUnits="userSpaceOnUse">
      <stop offset="0%" stop-color="rgb(235,248,255)" stop-opacity="0.42"/>
      <stop offset="45%" stop-color="rgb(200,235,255)" stop-opacity="0.18"/>
      <stop offset="100%" stop-color="rgb(200,235,255)" stop-opacity="0"/>
    </linearGradient>
  </defs>

  <path d="M 712 980 C 676 1127, 766 1274, 688 1400" stroke="url(#web_extraTentGrad)" stroke-width="2" fill="none" stroke-linecap="round" />
<path d="M 804 980 C 765.6 1127, 861.6 1274, 778.4 1400" stroke="url(#web_extraTentGrad)" stroke-width="2.25" fill="none" stroke-linecap="round" />
<path d="M 896 980 C 855.2 1127, 957.2 1274, 868.8 1400" stroke="url(#web_extraTentGrad)" stroke-width="2.5" fill="none" stroke-linecap="round" />
<path d="M 1024 980 C 980.8 1127, 1088.8 1274, 995.2 1400" stroke="url(#web_extraTentGrad)" stroke-width="2" fill="none" stroke-linecap="round" />
<path d="M 1152 980 C 1106.4 1127, 1220.4 1274, 1121.6 1400" stroke="url(#web_extraTentGrad)" stroke-width="2.25" fill="none" stroke-linecap="round" />
<path d="M 1244 980 C 1196 1127, 1316 1274, 1212 1400" stroke="url(#web_extraTentGrad)" stroke-width="2.5" fill="none" stroke-linecap="round" />
<path d="M 1336 980 C 1285.6 1127, 1411.6 1274, 1302.4 1400" stroke="url(#web_extraTentGrad)" stroke-width="2" fill="none" stroke-linecap="round" />
  
  <g transform="translate(507.40,160.00) scale(3.6900)">
    <defs>
      <radialGradient id="web_bellGrad" cx="50%" cy="28%" r="60%" fx="48%" fy="22%">
        <stop offset="0%" stop-color="#ffffff" stop-opacity="0.75"/>
        <stop offset="20%" stop-color="#f8faff" stop-opacity="0.58"/>
        <stop offset="45%" stop-color="#f0f4ff" stop-opacity="0.40"/>
        <stop offset="70%" stop-color="#e4ecff" stop-opacity="0.22"/>
        <stop offset="88%" stop-color="#d8e4ff" stop-opacity="0.10"/>
        <stop offset="100%" stop-color="#c8d8f8" stop-opacity="0.04"/>
      </radialGradient>
      <radialGradient id="web_topGlow" cx="40%" cy="20%" r="42%">
        <stop offset="0%" stop-color="#ffffff" stop-opacity="0.45"/>
        <stop offset="50%" stop-color="#f8f8ff" stop-opacity="0.12"/>
        <stop offset="100%" stop-color="#ffffff" stop-opacity="0"/>
      </radialGradient>
    </defs>

    <!-- Tentacules -->
    <path d="M 42.0 122.0 C 40.9 124.5 39.4 126.8 37.5 131.8 C 35.6 136.8 34.8 136.7 34.5 141.9 C 34.1 147.2 34.9 147.4 36.1 152.9 C 37.3 158.5 38.8 158.8 39.2 164.2 C 39.7 169.7 40.1 169.7 37.9 174.7 C 35.6 179.6 34.3 179.3 30.2 183.9 C 26.1 188.4 24.3 188.1 21.5 192.9 C 18.7 197.7 18.3 197.7 19.0 203.1 C 19.7 208.6 21.5 208.9 24.3 214.8 C 27.1 220.7 29.3 221.1 30.4 226.7 C 31.5 232.2 31.8 232.3 28.8 237.1 C 25.8 241.8 21.0 243.6 18.4 245.8" stroke="rgb(220,228,255)" stroke-opacity="0.55" stroke-width="0.9" fill="none" stroke-linecap="round" />
<path d="M 68.0 135.0 C 67.1 138.0 64.5 140.8 64.3 146.9 C 64.1 153.1 65.6 153.2 67.1 159.6 C 68.7 165.9 70.3 166.1 70.3 172.2 C 70.4 178.4 70.4 178.4 67.4 184.2 C 64.4 190.1 62.5 189.9 58.4 195.6 C 54.3 201.3 52.5 201.1 50.9 207.1 C 49.4 213.1 49.8 213.1 52.3 219.5 C 54.8 226.0 57.2 226.2 60.9 232.8 C 64.6 239.4 66.6 239.6 66.9 245.8 C 67.2 252.0 66.6 251.9 62.1 257.6 C 57.6 263.3 54.7 262.9 48.9 268.5 C 43.2 274.0 41.6 276.9 39.1 279.7" stroke="rgb(215,225,255)" stroke-opacity="0.5" stroke-width="0.75" fill="none" stroke-linecap="round" />
<path d="M 95.0 143.0 C 95.3 145.8 95.4 148.6 96.3 154.3 C 97.2 159.9 98.7 160.0 98.5 165.6 C 98.3 171.2 98.1 171.2 95.6 176.7 C 93.1 182.2 91.4 182.1 88.6 187.5 C 85.8 193.0 84.6 192.9 84.3 198.5 C 84.1 204.1 84.8 204.1 87.7 209.9 C 90.5 215.7 92.7 215.8 95.6 221.6 C 98.6 227.3 99.9 227.4 99.4 233.0 C 98.9 238.6 97.8 238.5 93.6 243.9 C 89.4 249.3 86.8 249.1 82.6 254.5 C 78.4 259.8 76.9 259.8 76.9 265.4 C 76.8 271.0 81.0 274.0 82.4 276.9" stroke="rgb(225,232,255)" stroke-opacity="0.5" stroke-width="0.8" fill="none" stroke-linecap="round" />
<path d="M 118.0 148.0 C 116.7 151.5 113.6 154.9 113.0 161.9 C 112.4 168.9 113.1 168.9 115.6 175.9 C 118.1 183.0 120.4 183.1 123.0 190.1 C 125.6 197.2 127.0 197.2 126.0 204.2 C 125.0 211.2 123.6 211.2 118.9 218.0 C 114.2 224.9 111.3 224.9 107.3 231.8 C 103.4 238.7 102.0 238.6 103.1 245.7 C 104.2 252.7 106.3 252.7 111.8 259.9 C 117.4 267.0 121.0 267.1 125.3 274.2 C 129.7 281.3 131.1 281.4 129.3 288.3 C 127.5 295.3 125.0 295.2 118.1 302.1 C 111.2 308.9 105.8 312.2 101.7 315.6" stroke="rgb(218,226,255)" stroke-opacity="0.42" stroke-width="0.62" fill="none" stroke-linecap="round" />
<path d="M 140.0 151.0 C 140.0 154.8 138.3 158.7 140.0 166.4 C 141.8 174.1 144.8 174.1 146.9 181.8 C 149.0 189.5 150.2 189.5 148.4 197.2 C 146.7 204.9 144.8 204.9 139.9 212.6 C 135.1 220.3 132.0 220.3 129.1 228.0 C 126.1 235.7 125.3 235.7 128.1 243.4 C 130.9 251.1 133.6 251.1 140.1 258.8 C 146.5 266.5 150.2 266.5 153.8 274.2 C 157.5 281.9 158.1 281.9 154.6 289.6 C 151.1 297.3 147.6 297.3 139.9 305.0 C 132.2 312.7 128.0 312.7 123.8 320.4 C 119.6 328.1 123.3 331.9 123.2 335.8" stroke="rgb(220,228,255)" stroke-opacity="0.38" stroke-width="0.55" fill="none" stroke-linecap="round" />
<path d="M 162.0 148.0 C 161.1 151.5 158.1 155.1 158.5 162.1 C 159.0 169.1 160.7 169.0 163.8 176.0 C 166.8 182.9 169.1 182.8 170.9 189.8 C 172.7 196.7 173.2 196.7 171.0 203.8 C 168.8 210.8 166.6 210.9 162.1 218.0 C 157.6 225.1 154.9 225.2 153.0 232.3 C 151.1 239.3 150.9 239.3 154.4 246.2 C 157.9 253.1 160.8 253.1 166.9 259.9 C 173.0 266.8 176.1 266.7 178.8 273.6 C 181.5 280.6 181.4 280.6 177.5 287.7 C 173.7 294.8 170.2 294.8 163.4 302.0 C 156.6 309.2 153.7 312.8 150.5 316.3" stroke="rgb(218,226,255)" stroke-opacity="0.42" stroke-width="0.62" fill="none" stroke-linecap="round" />
<path d="M 185.0 143.0 C 184.3 145.8 182.7 148.7 182.3 154.4 C 181.9 160.0 181.7 160.0 183.4 165.5 C 185.1 171.0 186.5 171.0 189.2 176.4 C 191.9 181.9 193.3 181.8 194.2 187.3 C 195.1 192.9 194.9 192.9 192.7 198.7 C 190.6 204.4 188.6 204.5 185.6 210.3 C 182.5 216.1 180.9 216.1 180.6 221.8 C 180.3 227.4 180.8 227.4 184.3 232.8 C 187.8 238.2 190.2 238.1 194.6 243.4 C 199.0 248.8 200.9 248.7 201.9 254.2 C 202.9 259.8 202.2 259.8 198.7 265.6 C 195.2 271.4 190.7 274.5 188.0 277.4" stroke="rgb(225,232,255)" stroke-opacity="0.5" stroke-width="0.8" fill="none" stroke-linecap="round" />
<path d="M 212.0 135.0 C 213.1 138.0 214.7 140.9 216.5 146.8 C 218.3 152.8 219.4 152.7 219.4 158.8 C 219.3 165.0 218.4 165.1 216.3 171.5 C 214.2 177.9 212.3 178.1 211.1 184.4 C 209.8 190.7 209.2 190.8 211.3 196.7 C 213.5 202.6 215.1 202.4 219.7 208.1 C 224.3 213.8 226.6 213.5 229.7 219.3 C 232.8 225.1 233.4 225.1 232.1 231.4 C 230.8 237.7 228.7 237.9 224.6 244.5 C 220.4 251.2 217.7 251.5 215.5 257.9 C 213.3 264.3 212.8 264.3 215.8 270.1 C 218.9 276.0 224.7 278.4 227.6 281.2" stroke="rgb(215,225,255)" stroke-opacity="0.5" stroke-width="0.75" fill="none" stroke-linecap="round" />
<path d="M 238.0 122.0 C 238.3 124.6 237.6 127.4 239.4 132.4 C 241.2 137.4 242.7 137.1 245.1 142.0 C 247.4 146.9 248.3 146.8 248.7 152.0 C 249.2 157.3 248.5 157.4 247.0 163.0 C 245.5 168.7 243.9 169.0 242.9 174.5 C 241.9 180.1 241.1 180.2 243.0 185.2 C 244.8 190.2 246.0 190.0 250.3 194.5 C 254.5 199.0 256.6 198.6 260.0 203.3 C 263.5 208.0 264.2 207.9 264.1 213.2 C 263.9 218.6 262.4 218.9 259.5 224.8 C 256.5 230.7 254.2 231.2 252.3 236.9 C 250.4 242.6 252.0 244.9 251.9 247.6" stroke="rgb(220,228,255)" stroke-opacity="0.55" stroke-width="0.9" fill="none" stroke-linecap="round" />
<path d="M 82.0 140.0 C 80.2 144.0 75.5 147.7 74.7 155.9 C 74.0 164.1 75.7 164.3 79.0 172.8 C 82.3 181.3 85.5 181.5 87.9 190.0 C 90.4 198.4 91.7 198.5 88.8 206.5 C 85.9 214.6 83.4 214.4 76.3 222.1 C 69.1 229.7 65.2 229.4 60.4 237.3 C 55.6 245.2 54.5 245.1 57.1 253.5 C 59.7 262.0 63.2 262.3 70.8 271.1 C 78.3 280.0 83.1 280.3 87.4 288.9 C 91.7 297.5 92.6 297.6 88.0 305.5 C 83.4 313.4 79.1 313.0 68.9 320.5 C 58.6 327.9 52.4 331.6 46.9 335.2" stroke="rgb(210,220,255)" stroke-opacity="0.28" stroke-width="0.48" fill="none" stroke-linecap="round" />
<path d="M 198.0 140.0 C 198.9 143.9 198.9 147.8 201.6 155.5 C 204.3 163.2 207.3 163.0 208.9 170.7 C 210.5 178.5 210.6 178.5 207.9 186.6 C 205.2 194.7 202.5 194.9 198.2 203.2 C 194.0 211.4 191.3 211.6 190.9 219.6 C 190.5 227.5 191.1 227.4 196.6 234.9 C 202.1 242.4 205.9 242.1 212.9 249.4 C 219.9 256.8 223.0 256.5 224.7 264.3 C 226.4 272.1 225.3 272.1 219.9 280.5 C 214.4 288.8 209.9 289.2 202.9 297.6 C 195.9 306.1 192.5 306.3 191.9 314.3 C 191.3 322.2 198.3 325.6 200.4 329.4" stroke="rgb(210,220,255)" stroke-opacity="0.28" stroke-width="0.48" fill="none" stroke-linecap="round" />
<path d="M 55.0 128.0 C 55.3 130.3 56.3 132.8 56.2 137.4 C 56.1 142.0 56.3 142.0 54.6 146.3 C 52.9 150.7 51.9 150.5 49.3 154.8 C 46.8 159.0 45.6 158.8 44.4 163.2 C 43.2 167.6 43.3 167.6 44.5 172.4 C 45.6 177.2 47.1 177.4 49.0 182.3 C 51.0 187.2 52.3 187.4 52.2 192.0 C 52.1 196.6 51.8 196.5 48.7 200.7 C 45.7 204.8 43.8 204.5 40.0 208.6 C 36.1 212.6 34.6 212.3 33.2 216.7 C 31.9 221.1 32.4 221.2 34.5 226.1 C 36.6 231.1 39.9 233.9 41.8 236.4" stroke="rgb(222,230,255)" stroke-opacity="0.45" stroke-width="0.7" fill="none" stroke-linecap="round" />
<path d="M 225.0 128.0 C 224.7 130.3 223.4 132.8 223.8 137.4 C 224.2 141.9 224.4 141.9 226.5 146.2 C 228.5 150.5 229.7 150.3 232.0 154.5 C 234.3 158.8 235.1 158.7 235.6 163.2 C 236.0 167.7 235.4 167.8 233.8 172.7 C 232.2 177.5 230.6 177.8 229.1 182.6 C 227.6 187.4 226.7 187.6 227.8 192.0 C 228.9 196.4 229.8 196.3 233.4 200.4 C 237.1 204.4 239.0 204.1 242.3 208.2 C 245.7 212.3 246.6 212.2 246.8 216.7 C 246.9 221.3 245.8 221.5 243.0 226.5 C 240.2 231.5 237.4 234.3 235.6 236.8" stroke="rgb(222,230,255)" stroke-opacity="0.45" stroke-width="0.7" fill="none" stroke-linecap="round" />
    
    <!-- Tentacules centrales (raccourcies) -->
    <path d="M 140 148 C 134 160 128 170 124 182 C 120 192 124 202 130 210 C 126 218 122 228 124 240"
      stroke="rgba(200,210,255,0.65)" stroke-width="2.2" fill="none" stroke-linecap="round"/>
    <path d="M 140 148 C 146 160 152 170 156 182 C 160 192 156 202 150 210 C 154 218 158 228 156 240"
      stroke="rgba(200,210,255,0.65)" stroke-width="2.2" fill="none" stroke-linecap="round"/>
    <path d="M 140 148 C 140 162 139 176 137 188 C 135 198 138 206 140 214 C 142 206 145 198 143 188 C 141 176 140 162 140 148"
      stroke="rgba(210,218,255,0.58)" stroke-width="1.8" fill="none" stroke-linecap="round"/>
      

    <!-- Halo / contour -->
    <path d="M 32 118 C 20 65 55 12 140 8 C 226 12 260 65 248 118 C 238 140 210 152 186 148 C 170 155 155 157 140 157 C 125 157 110 155 94 148 C 70 152 42 140 32 118 Z"
      fill="none" stroke="rgba(220,230,255,0.15)" stroke-width="18" />
    <path d="M 32 118 C 20 65 55 12 140 8 C 226 12 260 65 248 118 C 238 140 210 152 186 148 C 170 155 155 157 140 157 C 125 157 110 155 94 148 C 70 152 42 140 32 118 Z"
      fill="none" stroke="rgba(230,235,255,0.20)" stroke-width="10" />
    <path d="M 32 118 C 20 65 55 12 140 8 C 226 12 260 65 248 118 C 238 140 210 152 186 148 C 170 155 155 157 140 157 C 125 157 110 155 94 148 C 70 152 42 140 32 118 Z"
      fill="none" stroke="rgba(240,242,255,0.30)" stroke-width="5" />
    <path d="M 32 118 C 20 65 55 12 140 8 C 226 12 260 65 248 118 C 238 140 210 152 186 148 C 170 155 155 157 140 157 C 125 157 110 155 94 148 C 70 152 42 140 32 118 Z"
      fill="none" stroke="rgba(255,255,255,0.90)" stroke-width="1.5" />
    <path d="M 55 62 C 75 28 115 10 160 14 C 190 17 215 32 232 55" fill="none" stroke="rgba(255,255,255,0.70)" stroke-width="2.5" stroke-linecap="round" />
    <path d="M 62 58 C 82 26 118 9 158 13" fill="none" stroke="rgba(255,255,255,0.45)" stroke-width="1.2" stroke-linecap="round" />

    <!-- Cloche -->
    <path d="M 32 118 C 20 65 55 12 140 8 C 226 12 260 65 248 118 C 238 140 210 152 186 148 C 170 155 155 157 140 157 C 125 157 110 155 94 148 C 70 152 42 140 32 118 Z" fill="rgba(240,245,255,0.28)" />
    <path d="M 32 118 C 20 65 55 12 140 8 C 226 12 260 65 248 118 C 238 140 210 152 186 148 C 170 155 155 157 140 157 C 125 157 110 155 94 148 C 70 152 42 140 32 118 Z" fill="url(#web_bellGrad)" />
    <path d="M 32 118 C 20 65 55 12 140 8 C 226 12 260 65 248 118 C 238 140 210 152 186 148 C 170 155 155 157 140 157 C 125 157 110 155 94 148 C 70 152 42 140 32 118 Z" fill="url(#web_topGlow)" />
    <path d="M 32 118 C 20 65 55 12 140 8 C 226 12 260 65 248 118 C 238 140 210 152 186 148 C 170 155 155 157 140 157 C 125 157 110 155 94 148 C 70 152 42 140 32 118 Z" fill="none" stroke="rgba(255,255,255,0.75)" stroke-width="1.2" />

    <!-- Traits internes -->
    <path d="M 140 105 Q 108 88 78  98"  stroke="rgba(200,215,255,0.25)" stroke-width="1.3" fill="none"/>
    <path d="M 140 105 Q 115 78 100 52"  stroke="rgba(200,215,255,0.25)" stroke-width="1.3" fill="none"/>
    <path d="M 140 105 Q 132 68 130 38"  stroke="rgba(205,218,255,0.22)" stroke-width="1.2" fill="none"/>
    <path d="M 140 105 Q 140 66 140 36"  stroke="rgba(210,220,255,0.26)" stroke-width="1.4" fill="none"/>
    <path d="M 140 105 Q 148 68 150 38"  stroke="rgba(205,218,255,0.22)" stroke-width="1.2" fill="none"/>
    <path d="M 140 105 Q 165 78 180 52"  stroke="rgba(200,215,255,0.25)" stroke-width="1.3" fill="none"/>
    <path d="M 140 105 Q 172 88 202 98"  stroke="rgba(200,215,255,0.25)" stroke-width="1.3" fill="none"/>
    <path d="M 140 105 Q 95  95  68 108"  stroke="rgba(200,212,255,0.20)" stroke-width="1.1" fill="none"/>
    <path d="M 140 105 Q 185 95 212 108"  stroke="rgba(200,212,255,0.20)" stroke-width="1.1" fill="none"/>

    <!-- Frange -->
    <path d="M 46 122 Q 62 136 80 132 Q 96 142 112 138 Q 126 144 140 144 Q 154 144 168 138 Q 184 142 200 132 Q 218 136 234 122"
      stroke="rgba(220,228,255,0.50)" stroke-width="1.8" fill="none" />
    <path d="M 58 126 Q 68 134 78 130 Q 88 138 100 134 Q 112 142 124 138 Q 132 144 140 143 Q 148 144 156 138 Q 168 142 180 134 Q 192 138 202 130 Q 212 134 222 126"
      stroke="rgba(228,235,255,0.35)" stroke-width="1.2" fill="none" />

    <!-- Particules -->
    <circle cx="96"  cy="60" r="2.2" fill="rgba(200,235,255,0.72)" />
    <circle cx="184" cy="60" r="2.2" fill="rgba(200,235,255,0.72)" />
    <circle cx="68"  cy="95" r="1.8" fill="rgba(180,225,255,0.60)" />
    <circle cx="212" cy="95" r="1.8" fill="rgba(180,225,255,0.60)" />
    <circle cx="140" cy="28" r="2.8" fill="rgba(240,250,255,0.95)" />
    <circle cx="120" cy="22" r="1.5" fill="rgba(220,242,255,0.70)" />
    <circle cx="160" cy="22" r="1.5" fill="rgba(220,242,255,0.70)" />
  </g>
  

  <text x="1024" y="1560"
        text-anchor="middle"
        fill="rgba(255,255,255,0.95)"
        font-family="-apple-system, BlinkMacSystemFont, 'Helvetica Neue', Helvetica, Arial, sans-serif"
        font-size="140"
        font-weight="200"
        letter-spacing="20">
    FLUIDBODY
  </text>
  <text x="1024" y="1820"
        text-anchor="middle"
        fill="#4DD9E8"
        font-family="-apple-system, BlinkMacSystemFont, 'Helvetica Neue', Helvetica, Arial, sans-serif"
        font-size="100"
        font-weight="300"
        letter-spacing="24">
    PILATES
  </text>
</svg>