<?xml version="1.0" encoding="UTF-8"?>
<svg xmlns="http://www.w3.org/2000/svg" width="1320" height="2868" viewBox="0 0 1320 2868">
  <defs>
    <linearGradient id="bgGrad" x1="0" y1="0" x2="0" y2="2868" gradientUnits="userSpaceOnUse">
      <!-- Dégradé sur les 60% supérieurs, bas sombre -->
      <stop offset="0%" stop-color="#00B4D8" />
      <stop offset="30%" stop-color="#005f7a" />
      <stop offset="60%" stop-color="#081525" />
      <stop offset="100%" stop-color="#081525" />
    </linearGradient>
    <linearGradient id="wpTentGrad" x1="0" y1="1480" x2="0" y2="1744" gradientUnits="userSpaceOnUse">
      <stop offset="0%" stop-color="rgb(235,248,255)" stop-opacity="0.42"/>
      <stop offset="40%" stop-color="rgb(200,235,255)" stop-opacity="0.20"/>
      <stop offset="100%" stop-color="rgb(200,235,255)" stop-opacity="0"/>
    </linearGradient>
  </defs>

  <rect width="1320" height="2868" fill="url(#bgGrad)" />

  <circle cx="180" cy="260" r="2.2" fill="rgba(200,235,255,0.55)" />
<circle cx="1020" cy="340" r="1.6" fill="rgba(200,235,255,0.45)" />
<circle cx="860" cy="520" r="2.6" fill="rgba(200,235,255,0.35)" />
<circle cx="420" cy="610" r="1.8" fill="rgba(200,235,255,0.35)" />
<circle cx="1180" cy="740" r="1.4" fill="rgba(200,235,255,0.3)" />
<circle cx="260" cy="820" r="1.2" fill="rgba(200,235,255,0.26)" />
<circle cx="1060" cy="980" r="2" fill="rgba(200,235,255,0.22)" />
<circle cx="640" cy="1120" r="1.6" fill="rgba(200,235,255,0.18)" />
<circle cx="980" cy="1320" r="1.9" fill="rgba(200,235,255,0.16)" />
<circle cx="360" cy="1500" r="1.5" fill="rgba(200,235,255,0.14)" />
<circle cx="820" cy="1680" r="1.2" fill="rgba(200,235,255,0.12)" />

  
  <g transform="translate(28.60,640.00) scale(4.5100)">
    <defs>
      <radialGradient id="wp_bellGrad" cx="50%" cy="28%" r="60%" fx="48%" fy="22%">
        <stop offset="0%" stop-color="#ffffff" stop-opacity="0.75"/>
        <stop offset="20%" stop-color="#f8faff" stop-opacity="0.58"/>
        <stop offset="45%" stop-color="#f0f4ff" stop-opacity="0.40"/>
        <stop offset="70%" stop-color="#e4ecff" stop-opacity="0.22"/>
        <stop offset="88%" stop-color="#d8e4ff" stop-opacity="0.10"/>
        <stop offset="100%" stop-color="#c8d8f8" stop-opacity="0.04"/>
      </radialGradient>
      <radialGradient id="wp_topGlow" cx="40%" cy="20%" r="42%">
        <stop offset="0%" stop-color="#ffffff" stop-opacity="0.45"/>
        <stop offset="50%" stop-color="#f8f8ff" stop-opacity="0.12"/>
        <stop offset="100%" stop-color="#ffffff" stop-opacity="0"/>
      </radialGradient>
    </defs>

    <!-- Tentacules -->
    <path d="M 42.0 122.0 C 40.8 123.5 39.2 125.0 37.4 128.1 C 35.5 131.3 34.5 131.1 34.7 134.7 C 34.9 138.2 35.9 138.4 38.1 142.3 C 40.3 146.3 42.3 146.6 43.5 150.4 C 44.7 154.1 45.3 154.2 43.0 157.3 C 40.7 160.4 39.0 160.1 34.2 162.7 C 29.5 165.3 27.1 164.8 24.1 167.8 C 21.1 170.7 20.6 170.6 22.2 174.4 C 23.8 178.2 26.0 178.7 30.4 183.0 C 34.7 187.3 37.5 187.9 39.6 191.8 C 41.8 195.7 42.1 195.8 38.9 198.7 C 35.6 201.6 29.6 202.2 26.5 203.3" stroke="rgb(220,228,255)" stroke-opacity="0.55" stroke-width="0.9" fill="none" stroke-linecap="round" />
<path d="M 68.0 135.0 C 67.0 136.9 63.8 138.6 64.0 142.7 C 64.1 146.7 66.2 146.9 68.6 151.3 C 71.0 155.6 73.2 155.8 73.7 159.9 C 74.2 164.0 74.2 164.0 70.7 167.7 C 67.2 171.4 64.8 171.1 59.8 174.6 C 54.9 178.1 52.5 177.8 50.9 181.7 C 49.4 185.6 49.9 185.6 53.6 190.1 C 57.3 194.6 60.5 194.9 65.7 199.5 C 70.9 204.2 73.6 204.5 74.5 208.6 C 75.3 212.7 74.5 212.7 69.0 216.1 C 63.6 219.6 59.8 219.1 52.7 222.4 C 45.6 225.7 43.7 227.5 40.7 229.2" stroke="rgb(215,225,255)" stroke-opacity="0.5" stroke-width="0.75" fill="none" stroke-linecap="round" />
<path d="M 95.0 143.0 C 95.5 144.9 95.7 146.7 97.1 150.5 C 98.4 154.3 100.4 154.4 100.4 158.0 C 100.4 161.7 100.0 161.7 97.0 165.2 C 94.0 168.7 91.8 168.6 88.3 172.1 C 84.8 175.6 83.2 175.5 83.1 179.2 C 83.0 182.9 84.0 182.9 87.9 186.8 C 91.8 190.7 94.7 190.9 98.7 194.8 C 102.8 198.7 104.6 198.8 104.1 202.5 C 103.6 206.1 102.2 206.1 96.9 209.5 C 91.6 212.8 88.2 212.6 82.9 216.0 C 77.6 219.4 75.7 219.3 75.8 223.0 C 76.0 226.7 81.6 228.9 83.5 230.8" stroke="rgb(225,232,255)" stroke-opacity="0.5" stroke-width="0.8" fill="none" stroke-linecap="round" />
<path d="M 118.0 148.0 C 116.4 150.3 112.3 152.5 111.6 157.0 C 111.0 161.6 111.9 161.7 115.3 166.3 C 118.7 171.0 121.7 171.1 125.2 175.8 C 128.7 180.5 130.6 180.5 129.3 185.1 C 128.1 189.7 126.3 189.6 120.3 194.1 C 114.3 198.5 110.5 198.4 105.4 202.9 C 100.4 207.4 98.6 207.3 100.1 212.0 C 101.7 216.6 104.4 216.7 111.7 221.5 C 119.1 226.3 123.8 226.4 129.6 231.1 C 135.5 235.9 137.3 235.9 135.1 240.5 C 132.8 245.0 129.6 244.9 120.6 249.3 C 111.7 253.7 104.7 255.8 99.4 258.0" stroke="rgb(218,226,255)" stroke-opacity="0.42" stroke-width="0.62" fill="none" stroke-linecap="round" />
<path d="M 140.0 151.0 C 140.0 153.5 137.8 156.1 140.0 161.1 C 142.3 166.2 146.3 166.2 149.0 171.2 C 151.8 176.3 153.3 176.3 151.0 181.4 C 148.7 186.4 146.2 186.4 139.9 191.5 C 133.6 196.5 129.6 196.5 125.7 201.6 C 121.8 206.7 120.8 206.7 124.4 211.7 C 128.0 216.8 131.7 216.8 140.1 221.8 C 148.5 226.9 153.4 226.9 158.1 232.0 C 162.8 237.0 163.6 237.0 159.1 242.1 C 154.5 247.1 149.9 247.1 139.9 252.2 C 129.8 257.3 124.3 257.3 118.8 262.3 C 113.3 267.4 118.2 269.9 118.0 272.4" stroke="rgb(220,228,255)" stroke-opacity="0.38" stroke-width="0.55" fill="none" stroke-linecap="round" />
<path d="M 162.0 148.0 C 160.8 150.3 156.8 152.7 157.3 157.3 C 157.7 161.9 159.9 161.9 163.8 166.4 C 167.8 170.9 170.7 170.8 173.0 175.3 C 175.2 179.9 175.9 179.9 172.9 184.5 C 169.9 189.2 167.0 189.3 161.0 194.0 C 155.0 198.8 151.5 198.9 148.8 203.5 C 146.2 208.2 146.0 208.2 150.5 212.7 C 154.9 217.2 158.7 217.1 166.6 221.5 C 174.5 225.9 178.6 225.8 181.9 230.3 C 185.3 234.8 185.2 234.8 180.0 239.6 C 174.9 244.3 170.3 244.4 161.3 249.2 C 152.4 254.1 148.5 256.5 144.2 258.9" stroke="rgb(218,226,255)" stroke-opacity="0.42" stroke-width="0.62" fill="none" stroke-linecap="round" />
<path d="M 185.0 143.0 C 184.0 144.9 181.8 146.9 181.0 150.6 C 180.3 154.3 180.0 154.3 182.1 157.9 C 184.1 161.5 185.9 161.4 189.2 164.9 C 192.6 168.4 194.5 168.3 195.4 171.9 C 196.4 175.5 196.1 175.5 193.0 179.4 C 190.0 183.3 187.5 183.4 183.3 187.3 C 179.1 191.2 177.0 191.4 176.3 195.1 C 175.7 198.8 176.4 198.8 180.8 202.2 C 185.2 205.6 188.3 205.5 193.9 208.8 C 199.4 212.2 201.9 212.1 203.0 215.7 C 204.1 219.3 203.1 219.4 198.4 223.3 C 193.7 227.3 187.6 229.5 184.0 231.5" stroke="rgb(225,232,255)" stroke-opacity="0.5" stroke-width="0.8" fill="none" stroke-linecap="round" />
<path d="M 212.0 135.0 C 213.3 136.9 215.0 138.7 217.0 142.5 C 219.0 146.4 220.4 146.2 219.9 150.3 C 219.4 154.4 218.1 154.6 215.0 159.0 C 211.9 163.4 209.4 163.6 207.3 167.9 C 205.2 172.2 204.4 172.3 206.8 176.1 C 209.1 179.9 211.2 179.6 216.8 183.1 C 222.4 186.5 225.5 186.2 229.1 189.8 C 232.7 193.5 233.4 193.4 231.3 197.7 C 229.2 201.9 226.4 202.2 220.6 206.9 C 214.7 211.6 211.1 212.0 207.8 216.5 C 204.5 220.9 203.9 220.9 207.4 224.6 C 210.9 228.3 218.3 229.5 221.9 231.1" stroke="rgb(215,225,255)" stroke-opacity="0.5" stroke-width="0.75" fill="none" stroke-linecap="round" />
<path d="M 238.0 122.0 C 238.1 123.7 236.9 125.7 238.5 128.9 C 240.2 132.1 242.3 131.7 244.7 134.8 C 247.1 137.8 248.2 137.6 248.2 141.1 C 248.2 144.6 247.2 144.8 244.7 148.8 C 242.1 152.8 239.9 153.2 238.0 157.1 C 236.0 161.0 235.0 161.2 236.8 164.4 C 238.6 167.5 240.1 167.2 245.1 169.8 C 250.0 172.4 252.7 171.9 256.6 174.7 C 260.4 177.4 261.4 177.2 260.6 180.9 C 259.8 184.6 257.8 185.0 253.3 189.3 C 248.8 193.7 245.7 194.3 242.6 198.4 C 239.5 202.5 241.3 203.9 240.9 205.7" stroke="rgb(220,228,255)" stroke-opacity="0.55" stroke-width="0.9" fill="none" stroke-linecap="round" />
<path d="M 82.0 140.0 C 79.8 142.5 73.9 144.8 73.3 150.2 C 72.8 155.5 75.0 155.7 79.7 161.5 C 84.5 167.3 88.7 167.6 92.3 173.3 C 95.9 179.0 97.7 179.2 94.3 184.3 C 90.9 189.5 87.6 189.2 78.7 194.0 C 69.8 198.7 64.6 198.3 58.8 203.2 C 52.9 208.2 51.5 208.1 55.4 213.8 C 59.2 219.5 63.7 219.9 74.0 226.1 C 84.3 232.4 90.5 232.8 96.6 238.7 C 102.7 244.6 103.9 244.7 98.3 249.7 C 92.6 254.7 87.1 254.3 74.0 258.7 C 61.0 263.0 53.1 265.1 46.2 267.3" stroke="rgb(210,220,255)" stroke-opacity="0.28" stroke-width="0.48" fill="none" stroke-linecap="round" />
<path d="M 198.0 140.0 C 199.0 142.5 198.7 145.1 201.9 150.1 C 205.1 155.0 209.0 154.7 210.6 159.8 C 212.3 164.8 212.4 164.8 208.6 170.3 C 204.7 175.8 201.0 176.1 195.1 181.8 C 189.1 187.4 185.6 187.7 184.7 193.0 C 183.8 198.2 184.6 198.2 191.4 202.8 C 198.2 207.5 203.1 207.1 211.9 211.6 C 220.6 216.1 224.6 215.8 226.5 220.8 C 228.4 225.9 226.9 226.0 219.4 231.8 C 211.8 237.5 205.9 238.0 196.4 243.9 C 186.8 249.9 182.4 250.2 181.2 255.5 C 179.9 260.8 188.9 262.7 191.5 265.1" stroke="rgb(210,220,255)" stroke-opacity="0.28" stroke-width="0.48" fill="none" stroke-linecap="round" />
<path d="M 55.0 128.0 C 55.6 129.6 57.1 131.3 57.5 134.4 C 57.8 137.5 58.1 137.5 56.3 140.3 C 54.5 143.0 53.1 142.8 50.2 145.4 C 47.4 148.0 45.8 147.8 44.7 150.6 C 43.6 153.5 43.7 153.5 45.7 156.8 C 47.6 160.1 49.6 160.4 52.5 163.9 C 55.5 167.4 57.2 167.7 57.6 170.7 C 57.9 173.8 57.5 173.7 53.9 176.2 C 50.4 178.7 48.0 178.3 43.3 180.7 C 38.7 183.0 36.8 182.7 35.4 185.5 C 34.1 188.3 34.7 188.4 38.0 191.9 C 41.2 195.5 45.7 197.7 48.3 199.6" stroke="rgb(222,230,255)" stroke-opacity="0.45" stroke-width="0.7" fill="none" stroke-linecap="round" />
<path d="M 225.0 128.0 C 224.4 129.6 222.5 131.4 222.6 134.4 C 222.6 137.4 222.9 137.4 225.2 140.1 C 227.4 142.8 229.0 142.5 231.5 145.2 C 234.0 147.8 235.1 147.6 235.3 150.6 C 235.4 153.6 234.6 153.8 232.1 157.2 C 229.5 160.6 227.4 160.9 225.0 164.3 C 222.6 167.7 221.5 167.9 222.4 170.7 C 223.4 173.6 224.6 173.4 228.9 175.8 C 233.2 178.2 235.7 177.8 239.6 180.2 C 243.6 182.6 244.8 182.5 244.6 185.5 C 244.3 188.6 242.8 188.8 238.7 192.5 C 234.6 196.1 230.8 198.2 228.2 200.1" stroke="rgb(222,230,255)" stroke-opacity="0.45" stroke-width="0.7" fill="none" stroke-linecap="round" />
    
    <!-- Tentacules centrales (longues) -->
    <path d="M 140 148 C 132 156.4 120 165.4 124 175 C 116 181 110 188.2 114 195.4 C 110 201.4 104 209.2 108 217.6"
      stroke="rgba(200,210,255,0.55)" stroke-width="2.0" fill="none" stroke-linecap="round"/>
    <path d="M 140 148 C 148 156.4 160 165.4 156 175 C 164 181 170 188.2 166 195.4 C 170 201.4 176 209.2 172 217.6"
      stroke="rgba(200,210,255,0.55)" stroke-width="2.0" fill="none" stroke-linecap="round"/>
    <path d="M 140 148 C 140 156.4 138 165.4 136 173.2 C 134 181 138 188.2 140 194.8 C 142 188.2 146 181 144 173.2 C 142 165.4 140 156.4 140 148"
      stroke="rgba(210,218,255,0.46)" stroke-width="1.6" fill="none" stroke-linecap="round"/>
      

    <!-- Halo / contour -->
    <path d="M 32 118 C 20 65 55 12 140 8 C 226 12 260 65 248 118 C 238 140 210 152 186 148 C 170 155 155 157 140 157 C 125 157 110 155 94 148 C 70 152 42 140 32 118 Z"
      fill="none" stroke="rgba(220,230,255,0.15)" stroke-width="18" />
    <path d="M 32 118 C 20 65 55 12 140 8 C 226 12 260 65 248 118 C 238 140 210 152 186 148 C 170 155 155 157 140 157 C 125 157 110 155 94 148 C 70 152 42 140 32 118 Z"
      fill="none" stroke="rgba(230,235,255,0.20)" stroke-width="10" />
    <path d="M 32 118 C 20 65 55 12 140 8 C 226 12 260 65 248 118 C 238 140 210 152 186 148 C 170 155 155 157 140 157 C 125 157 110 155 94 148 C 70 152 42 140 32 118 Z"
      fill="none" stroke="rgba(240,242,255,0.30)" stroke-width="5" />
    <path d="M 32 118 C 20 65 55 12 140 8 C 226 12 260 65 248 118 C 238 140 210 152 186 148 C 170 155 155 157 140 157 C 125 157 110 155 94 148 C 70 152 42 140 32 118 Z"
      fill="none" stroke="rgba(255,255,255,0.90)" stroke-width="1.5" />
    <path d="M 55 62 C 75 28 115 10 160 14 C 190 17 215 32 232 55" fill="none" stroke="rgba(255,255,255,0.70)" stroke-width="2.5" stroke-linecap="round" />
    <path d="M 62 58 C 82 26 118 9 158 13" fill="none" stroke="rgba(255,255,255,0.45)" stroke-width="1.2" stroke-linecap="round" />

    <!-- Cloche -->
    <path d="M 32 118 C 20 65 55 12 140 8 C 226 12 260 65 248 118 C 238 140 210 152 186 148 C 170 155 155 157 140 157 C 125 157 110 155 94 148 C 70 152 42 140 32 118 Z" fill="rgba(240,245,255,0.28)" />
    <path d="M 32 118 C 20 65 55 12 140 8 C 226 12 260 65 248 118 C 238 140 210 152 186 148 C 170 155 155 157 140 157 C 125 157 110 155 94 148 C 70 152 42 140 32 118 Z" fill="url(#wp_bellGrad)" />
    <path d="M 32 118 C 20 65 55 12 140 8 C 226 12 260 65 248 118 C 238 140 210 152 186 148 C 170 155 155 157 140 157 C 125 157 110 155 94 148 C 70 152 42 140 32 118 Z" fill="url(#wp_topGlow)" />
    <path d="M 32 118 C 20 65 55 12 140 8 C 226 12 260 65 248 118 C 238 140 210 152 186 148 C 170 155 155 157 140 157 C 125 157 110 155 94 148 C 70 152 42 140 32 118 Z" fill="none" stroke="rgba(255,255,255,0.75)" stroke-width="1.2" />

    <!-- Traits internes -->
    <path d="M 140 105 Q 108 88 78  98"  stroke="rgba(200,215,255,0.25)" stroke-width="1.3" fill="none"/>
    <path d="M 140 105 Q 115 78 100 52"  stroke="rgba(200,215,255,0.25)" stroke-width="1.3" fill="none"/>
    <path d="M 140 105 Q 132 68 130 38"  stroke="rgba(205,218,255,0.22)" stroke-width="1.2" fill="none"/>
    <path d="M 140 105 Q 140 66 140 36"  stroke="rgba(210,220,255,0.26)" stroke-width="1.4" fill="none"/>
    <path d="M 140 105 Q 148 68 150 38"  stroke="rgba(205,218,255,0.22)" stroke-width="1.2" fill="none"/>
    <path d="M 140 105 Q 165 78 180 52"  stroke="rgba(200,215,255,0.25)" stroke-width="1.3" fill="none"/>
    <path d="M 140 105 Q 172 88 202 98"  stroke="rgba(200,215,255,0.25)" stroke-width="1.3" fill="none"/>
    <path d="M 140 105 Q 95  95  68 108"  stroke="rgba(200,212,255,0.20)" stroke-width="1.1" fill="none"/>
    <path d="M 140 105 Q 185 95 212 108"  stroke="rgba(200,212,255,0.20)" stroke-width="1.1" fill="none"/>

    <!-- Frange -->
    <path d="M 46 122 Q 62 136 80 132 Q 96 142 112 138 Q 126 144 140 144 Q 154 144 168 138 Q 184 142 200 132 Q 218 136 234 122"
      stroke="rgba(220,228,255,0.50)" stroke-width="1.8" fill="none" />
    <path d="M 58 126 Q 68 134 78 130 Q 88 138 100 134 Q 112 142 124 138 Q 132 144 140 143 Q 148 144 156 138 Q 168 142 180 134 Q 192 138 202 130 Q 212 134 222 126"
      stroke="rgba(228,235,255,0.35)" stroke-width="1.2" fill="none" />

    <!-- Particules -->
    <circle cx="96"  cy="60" r="2.2" fill="rgba(200,235,255,0.72)" />
    <circle cx="184" cy="60" r="2.2" fill="rgba(200,235,255,0.72)" />
    <circle cx="68"  cy="95" r="1.8" fill="rgba(180,225,255,0.60)" />
    <circle cx="212" cy="95" r="1.8" fill="rgba(180,225,255,0.60)" />
    <circle cx="140" cy="28" r="2.8" fill="rgba(240,250,255,0.95)" />
    <circle cx="120" cy="22" r="1.5" fill="rgba(220,242,255,0.70)" />
    <circle cx="160" cy="22" r="1.5" fill="rgba(220,242,255,0.70)" />
  </g>
  

  <path d="M 440 1480 C 401.5 1720, 499.5 2000, 415.5 1744" stroke="url(#wpTentGrad)" stroke-width="2" fill="none" stroke-linecap="round" />
<path d="M 520 1480 C 478.2 1720, 584.6 2000, 493.4 1744" stroke="url(#wpTentGrad)" stroke-width="2.25" fill="none" stroke-linecap="round" />
<path d="M 600 1480 C 554.9 1720, 669.7 2000, 571.3 1744" stroke="url(#wpTentGrad)" stroke-width="2.5" fill="none" stroke-linecap="round" />
<path d="M 660 1480 C 611.6 1720, 734.8 2000, 629.2 1744" stroke="url(#wpTentGrad)" stroke-width="2" fill="none" stroke-linecap="round" />
<path d="M 720 1480 C 668.3 1720, 799.9 2000, 687.1 1744" stroke="url(#wpTentGrad)" stroke-width="2.25" fill="none" stroke-linecap="round" />
<path d="M 800 1480 C 745 1720, 885 2000, 765 1744" stroke="url(#wpTentGrad)" stroke-width="2.5" fill="none" stroke-linecap="round" />
<path d="M 880 1480 C 821.7 1720, 970.1 2000, 842.9 1744" stroke="url(#wpTentGrad)" stroke-width="2" fill="none" stroke-linecap="round" />

  <text x="660" y="2090"
        text-anchor="middle"
        fill="rgba(255,255,255,0.95)"
        font-family="-apple-system, BlinkMacSystemFont, 'Helvetica Neue', Helvetica, Arial, sans-serif"
        font-size="180"
        font-weight="200"
        letter-spacing="16">
    FLUIDBODY
  </text>
  <text x="660" y="2335"
        text-anchor="middle"
        fill="#4DD9E8"
        font-family="-apple-system, BlinkMacSystemFont, 'Helvetica Neue', Helvetica, Arial, sans-serif"
        font-size="100"
        font-weight="300"
        letter-spacing="18">
    PILATES
  </text>
</svg>